<svg width="586" height="316" viewBox="0 0 586 316" fill="none" xmlns="http://www.w3.org/2000/svg">
<g opacity="0.9">
<path d="M222.931 -35.4898L203.878 55.7402L298.757 25.9476L222.931 -35.4898ZM232.917 -8.63774L269.773 20.3516L223.076 35.0149L232.917 -8.63774Z" fill="#1B2251"/>
<path d="M222.931 -35.4903L232.917 -8.63826L269.773 20.351L298.758 25.9463L222.931 -35.4903Z" fill="#1B2251"/>
<path d="M232.917 -8.63789L222.931 -35.49L203.878 55.7393L223.075 35.0147L232.917 -8.63789Z" fill="#1B2251"/>
<path d="M471.075 -75L463.431 32.1069L567.579 -14.5247L471.075 -75ZM486.704 -45.5243L533.475 -17.1303L482.216 5.82069L486.704 -45.5243Z" fill="#242E6C"/>
<path d="M486.704 -45.5243L471.075 -75L463.431 32.1069L482.216 5.82069L486.704 -45.5243Z" fill="#242E6C"/>
<path d="M544.153 47.8961L442.033 133.759L572.74 172.348L544.153 47.8961ZM531.219 84.8881L545.89 144.421L481.56 125.429L531.219 84.8881Z" fill="#242E6C"/>
<path d="M544.153 47.8961L531.219 84.8881L545.89 144.421L572.74 172.348L544.153 47.8961Z" fill="#242E6C"/>
<path d="M531.22 84.8882L544.153 47.8962L442.034 133.76L481.56 125.428L531.22 84.8882Z" fill="#242E6C"/>
<path d="M428.868 278.985L374.43 267.043L390.012 316L428.868 278.985ZM412.459 283.395L394.098 301.408L386.429 277.312L412.459 283.395Z" fill="#FE6B1D"/>
<path d="M428.868 278.985L412.459 283.395L394.097 301.408L390.012 316L428.868 278.985Z" fill="#FE6B1D"/>
<path d="M412.459 283.396L428.868 278.985L374.43 267.043L386.428 277.312L412.459 283.396Z" fill="#FE6B1D"/>
<path d="M39.8581 22.9512L-0.000228882 59.0548L53.4434 72.8428L39.8581 22.9512ZM35.2368 38.0764L42.1376 61.9282L15.8342 55.1423L35.2368 38.0764Z" fill="#FE6B1D"/>
<path d="M39.8581 22.9511L35.2368 38.0763L42.1376 61.928L53.4434 72.8418L39.8581 22.9511Z" fill="#FE6B1D"/>
<path d="M35.2369 38.0767L39.8583 22.9515L-8.39233e-05 59.0542L15.8344 55.1425L35.2369 38.0767Z" fill="#FE6B1D"/>
<path d="M277.355 -16.8701L309.636 59.5435L365.379 -3.58906L277.355 -16.8701ZM298.516 -1.09399L340.856 4.70928L313.421 35.7818L298.516 -1.09399Z" fill="#FE6B1D"/>
<path d="M277.355 -16.87L298.516 -1.0938L340.856 4.70947L365.38 -3.58886L277.355 -16.87Z" fill="#FE6B1D"/>
<path d="M298.516 -1.09399L277.355 -16.8701L309.637 59.5435L313.42 35.7818L298.516 -1.09399Z" fill="#FE6B1D"/>
<path d="M585.738 74.3914L522.097 112.989L589.575 144.372L585.738 74.3914ZM575.22 93.4889L577.598 127.043L544.386 111.598L575.22 93.4889Z" fill="#FE6B1D"/>
<path d="M585.738 74.3914L575.22 93.4889L577.597 127.044L589.576 144.372L585.738 74.3914Z" fill="#FE6B1D"/>
<path d="M575.22 93.4889L585.738 74.3915L522.097 112.989L544.386 111.598L575.22 93.4889Z" fill="#FE6B1D"/>
<path d="M530.476 295.477L490.202 253.935L471.075 306.242L530.476 295.477ZM512.944 290.063L484.524 295.614L493.937 269.87L512.944 290.063Z" fill="#1B2251"/>
<path d="M530.476 295.477L512.944 290.063L484.524 295.614L471.075 306.242L530.476 295.477Z" fill="#1B2251"/>
<path d="M512.944 290.064L530.476 295.477L490.201 253.935L493.937 269.87L512.944 290.064Z" fill="#1B2251"/>
<path d="M357.981 110.812L328.957 79.0046L313.42 117.62L357.981 110.812ZM345.038 106.415L323.708 109.97L331.355 90.9649L345.038 106.415Z" fill="#1B2251"/>
<path d="M357.981 110.812L345.038 106.415L323.708 109.97L313.42 117.62L357.981 110.812Z" fill="#1B2251"/>
<path d="M345.038 106.415L357.981 110.812L328.958 79.0055L331.356 90.965L345.038 106.415Z" fill="#1B2251"/>
<path d="M178.308 138.718L200.466 102.546L155.664 102.801L178.308 138.718ZM178.222 126.039L167.081 108.951L189.131 108.826L178.222 126.039Z" fill="#1B2251"/>
<path d="M178.307 138.718L178.222 126.039L167.081 108.95L155.664 102.801L178.307 138.718Z" fill="#1B2251"/>
<path d="M178.222 126.039L178.307 138.718L200.465 102.546L189.132 108.825L178.222 126.039Z" fill="#1B2251"/>
<path d="M540.212 28.5286L429.415 -5.46476L452.049 98.9424L540.212 28.5286ZM505.217 34.9345L463.453 69.2923L452.313 17.9055L505.217 34.9345Z" fill="#FE6B1D"/>
<path d="M540.212 28.5286L505.217 34.9345L463.452 69.2931L452.049 98.9424L540.212 28.5286Z" fill="#FE6B1D"/>
<path d="M505.217 34.9346L540.212 28.5286L429.415 -5.46472L452.312 17.9064L505.217 34.9346Z" fill="#FE6B1D"/>
<path d="M123.481 -37.5019L153.582 26.5723L198.832 -28.7655L123.481 -37.5019ZM142.028 -24.6949L178.251 -20.9904L155.98 6.2457L142.028 -24.6949Z" fill="#FE6B1D"/>
<path d="M142.028 -24.6949L123.481 -37.5019L153.581 26.5723L155.981 6.24487L142.028 -24.6949Z" fill="#FE6B1D"/>
<path d="M478.247 172.348L431.501 189.524L470.591 218.072L478.247 172.348ZM468.678 183.411L465.355 205.4L446.115 191.35L468.678 183.411Z" fill="#1B2251"/>
<path d="M478.247 172.348L468.678 183.411L465.355 205.401L470.591 218.072L478.247 172.348Z" fill="#1B2251"/>
<path d="M468.678 183.411L478.247 172.348L431.501 189.524L446.115 191.351L468.678 183.411Z" fill="#1B2251"/>
<path d="M603.495 306.807L600.555 231.763L531.664 271L603.495 306.807ZM590.343 287.31L555.601 270.594L589.507 251.282L590.343 287.31Z" fill="#242E6C"/>
<path d="M603.495 306.807L590.343 287.31L555.601 270.593L531.664 271.001L603.495 306.807Z" fill="#242E6C"/>
<path d="M378.437 182.766L337.524 165.171L341.155 206.205L378.437 182.766ZM364.684 183.794L346.973 195.282L345.187 175.086L364.684 183.794Z" fill="#242E6C"/>
<path d="M378.437 182.766L364.684 183.794L346.974 195.282L341.155 206.205L378.437 182.766Z" fill="#242E6C"/>
<path d="M364.684 183.794L378.437 182.766L337.525 165.171L345.187 175.085L364.684 183.794Z" fill="#242E6C"/>
<path d="M123.869 50.9023L131.557 9.99863L89.438 24.0331L123.869 50.9023ZM119.165 38.9822L102.438 26.312L123.168 19.4049L119.165 38.9822Z" fill="#242E6C"/>
<path d="M123.869 50.9023L119.165 38.9822L102.438 26.312L89.4378 24.0331L123.869 50.9023Z" fill="#242E6C"/>
<path d="M119.165 38.9822L123.869 50.9023L131.557 9.99863L123.167 19.4041L119.165 38.9822Z" fill="#242E6C"/>
<path d="M601.543 188.818L486.765 154.227L510.797 262.078L601.543 188.818ZM565.393 195.619L522.411 231.36L510.583 178.278L565.393 195.619Z" fill="#FE6B1D"/>
<path d="M601.543 188.818L565.393 195.619L522.412 231.36L510.797 262.078L601.543 188.818Z" fill="#FE6B1D"/>
<path d="M565.393 195.619L601.543 188.818L486.765 154.227L510.584 178.278L565.393 195.619Z" fill="#FE6B1D"/>
<path d="M429.576 11.8739L315.949 36.7599L395.162 114.447L429.576 11.8739ZM403.537 34.2918L387.81 83.7338L348.823 45.4979L403.537 34.2918Z" fill="#242E6C"/>
<path d="M429.576 11.8737L403.537 34.2916L387.811 83.7336L395.162 114.446L429.576 11.8737Z" fill="#242E6C"/>
<path d="M403.537 34.2915L429.576 11.8735L315.949 36.7595L348.824 45.4976L403.537 34.2915Z" fill="#242E6C"/>
<path d="M449.552 12.3323L407.433 -52.0186L367.834 12.9653L449.552 12.3323ZM427.771 1.12544L388.564 1.95822L408.054 -30.0257L427.771 1.12544Z" fill="#1B2251"/>
<path d="M449.552 12.332L427.771 1.12511L388.564 1.95789L367.835 12.9658L449.552 12.332Z" fill="#1B2251"/>
<path d="M427.771 1.12513L449.552 12.332L407.433 -52.0181L408.054 -30.026L427.771 1.12513Z" fill="#1B2251"/>
<path d="M387.096 59.4456L421.545 123.138L464.299 64.5471L387.096 59.4456ZM406.734 71.5459L443.819 73.494L422.777 102.331L406.734 71.5459Z" fill="#1B2251"/>
<path d="M387.096 59.4453L406.734 71.5456L443.819 73.4937L464.299 64.5468L387.096 59.4453Z" fill="#1B2251"/>
<path d="M406.735 71.5459L387.096 59.4456L421.545 123.138L422.777 102.331L406.735 71.5459Z" fill="#1B2251"/>
<path d="M411.887 156.026L472.181 158.138L444.505 109.381L411.887 156.026ZM428.228 148.193L443.523 125.6L457.145 149.597L428.228 148.193Z" fill="#FE6B1D"/>
<path d="M411.887 156.026L428.228 148.193L443.523 125.6L444.505 109.381L411.887 156.026Z" fill="#FE6B1D"/>
<path d="M428.228 148.194L411.887 156.026L472.181 158.139L457.144 149.597L428.228 148.194Z" fill="#FE6B1D"/>
<path d="M537.427 -15.7066L519.695 69.2026L608 41.4736L537.427 -15.7066ZM546.722 9.28499L581.024 36.2656L537.562 49.9127L546.722 9.28499Z" fill="#1B2251"/>
<path d="M537.427 -15.7061L546.722 9.28555L581.024 36.2662L608 41.4741L537.427 -15.7061Z" fill="#1B2251"/>
<path d="M546.722 9.28499L537.427 -15.7066L519.696 69.2026L537.562 49.9136L546.722 9.28499Z" fill="#1B2251"/>
</g>
</svg>
