<svg width="154" height="129" viewBox="0 0 154 129" fill="none" xmlns="http://www.w3.org/2000/svg">
<path d="M126.391 15.008V30.0156H140.196H154V15.008V0.000415802H140.196H126.391V15.008Z" fill="black"/>
<path d="M106.945 2.70138C106.865 3.00153 106.825 6.13169 106.865 9.64776L106.985 16.0796H113.387H119.789L119.909 9.09033L119.989 2.14396H113.587C108.705 2.14396 107.105 2.27259 106.945 2.70138Z" fill="black"/>
<path d="M103.984 31.3014V41.1636H113.186H122.389V31.3014V21.4393H113.186H103.984V31.3014Z" fill="black"/>
<path d="M15.3961 25.2987C12.8353 27.0996 12.9553 24.827 12.8353 66.0336L12.7153 103.553L6.35326 111.7C-0.568928 120.533 -0.728978 120.833 0.751489 123.877C1.71179 125.935 3.55237 127.608 5.47298 128.208C7.51362 128.808 134.034 128.808 136.074 128.208C137.995 127.608 139.835 125.935 140.796 123.877C142.076 121.262 141.836 120.318 139.235 116.931C137.915 115.216 134.954 111.357 132.633 108.355L128.392 102.867L128.432 89.4884L128.472 76.1101L124.831 75.9815L121.189 75.8529V85.1147C121.189 95.5343 120.989 96.5205 118.589 97.5925C117.428 98.107 109.986 98.1928 70.5735 98.1928C19.3574 98.1928 22.2783 98.3643 20.9579 95.62C20.4377 94.5481 20.3577 90.2602 20.3577 63.5038V32.6739L21.398 31.3446C21.9582 30.6157 23.0785 29.8438 23.8788 29.5866C24.8391 29.3293 34.8422 29.1578 51.2874 29.1578H77.1756V26.7994V24.4411H46.886C17.5568 24.4411 16.5165 24.484 15.3961 25.2987ZM90.3798 117.488L92.4604 120.061H71.0137C59.2099 120.061 49.5669 119.932 49.5669 119.718C49.5669 119.546 50.4072 118.389 51.4075 117.145L53.2481 114.916H70.7736H88.2991L90.3798 117.488ZM82.1772 124.349V125.421L70.9336 125.549C61.2906 125.635 59.6101 125.549 59.1699 124.992C58.7698 124.478 58.7698 124.22 59.1699 123.706C59.6101 123.148 61.2906 123.063 70.9336 123.148L82.1772 123.277V124.349Z" fill="black"/>
<path d="M83.1774 34.303V41.1636H89.7795H96.3815V34.303V27.4423H89.7795H83.1774V34.303Z" fill="black"/>
<path d="M88.3792 51.883V58.7437H94.9812H101.583V51.883V45.0224H94.9812H88.3792V51.883Z" fill="black"/>
<path d="M117.588 57.4573V69.4634H128.992H140.395L140.315 57.5431L140.195 45.6656L128.912 45.537L117.588 45.4512V57.4573Z" fill="black"/>
<path d="M69.1729 55.5278V61.3164H74.5746H79.9764V55.5278V49.7391H74.5746H69.1729V55.5278Z" fill="black"/>
<path d="M100.463 67.4058L100.583 74.395H106.985H113.387L113.507 67.4058L113.587 60.4594H106.985H100.383L100.463 67.4058Z" fill="black"/>
<path d="M79.9763 70.3212V76.3242H85.378H90.7797V70.3212V64.3181H85.378H79.9763V70.3212Z" fill="black"/>
<path d="M62.0509 71.6927L62.171 77.3956L67.6927 77.5242L73.1744 77.6528V71.8213V66.0327H67.5727H61.9309L62.0509 71.6927Z" fill="black"/>
</svg>
