<svg width="208" height="130" viewBox="0 0 208 130" fill="none" xmlns="http://www.w3.org/2000/svg">
<path d="M183.002 3.57628e-07H207.752V24.75H183.002V3.57628e-07ZM183.002 71.3379H207.752V96.0879H183.002V71.3379ZM183.002 142.676H207.752V167.426H183.002V142.676ZM122.002 3.57628e-07H146.752V24.75H122.002V3.57628e-07ZM122.002 71.3379H146.752V96.0879H122.002V71.3379ZM122.002 142.676H146.752V167.426H122.002V142.676ZM61.002 3.57628e-07H85.752V24.75H61.002V3.57628e-07ZM61.002 71.3379H85.752V96.0879H61.002V71.3379ZM61.002 142.676H85.752V167.426H61.002V142.676ZM0.00195312 3.57628e-07H24.752V24.75H0.00195312V3.57628e-07ZM0.00195312 71.3379H24.752V96.0879H0.00195312V71.3379ZM0.00195312 142.676H24.752V167.426H0.00195312V142.676Z" fill="#FF7824"/>
</svg>
