<svg width="783" height="229" viewBox="0 0 783 229" fill="none" xmlns="http://www.w3.org/2000/svg">
<path d="M10.2109 145.593L32.1683 139.829L35.3473 158.209L10.2109 145.593Z" stroke="#FF5100"/>
<path d="M42.7185 118.511L33.2512 138.945L51.7636 144.516L42.7185 118.511Z" stroke="#FF5100"/>
<path d="M14.9748 120.414L31.0479 138.703L9.09051 144.467L14.9748 120.414Z" stroke="#FF5100"/>
<path d="M32.2252 137.8L37.0508 127.663L41.6925 117.366L16.1521 119.512L32.2252 137.8Z" stroke="#FF5100"/>
<path d="M97.4316 173.844L78.6558 161.083L90.4196 146.608L97.4316 173.844Z" stroke="#FF5100"/>
<path d="M55.6551 167.142L77.2786 160.847L69.3106 143.233L55.6551 167.142Z" stroke="#FF5100"/>
<path d="M75.3233 186.801L78.5437 162.667L97.3194 175.428L75.3233 186.801Z" stroke="#FF5100"/>
<path d="M77.09 162.373L66.2781 165.398L55.4665 168.667L73.8696 186.506L77.09 162.373Z" stroke="#FF5100"/>
<path d="M198.538 146.978L194.039 169.229L176.139 163.985L198.538 146.978Z" stroke="#FF5100"/>
<path d="M208.529 188.092L194.355 170.591L181.198 184.755L208.529 188.092Z" stroke="#FF5100"/>
<path d="M219.043 162.348L195.544 168.72L200.042 146.468L219.043 162.348Z" stroke="#FF5100"/>
<path d="M195.835 170.174L202.809 178.972L210.008 187.676L219.334 163.802L195.835 170.174Z" stroke="#FF5100"/>
<path d="M456.538 78.9779L452.039 101.229L434.139 95.9854L456.538 78.9779Z" stroke="#FF5100"/>
<path d="M466.529 120.092L452.355 102.59L439.198 116.755L466.529 120.092Z" stroke="#FF5100"/>
<path d="M477.043 94.3475L453.544 100.719L458.042 78.468L477.043 94.3475Z" stroke="#FF5100"/>
<path d="M453.835 102.174L460.809 110.972L468.008 119.676L477.334 95.802L453.835 102.174Z" stroke="#FF5100"/>
<path d="M354.058 98.0316L349.559 120.283L331.658 115.039L354.058 98.0316Z" stroke="#FF5100"/>
<path d="M364.048 139.146L349.875 121.644L336.718 135.809L364.048 139.146Z" stroke="#FF5100"/>
<path d="M374.562 113.401L351.063 119.773L355.562 97.5217L374.562 113.401Z" stroke="#FF5100"/>
<path d="M351.355 121.228L358.329 130.026L365.528 138.729L374.854 114.856L351.355 121.228Z" stroke="#FF5100"/>
<path d="M730.962 211.073L718.821 191.891L735.376 183.297L730.962 211.073Z" stroke="#FF5100"/>
<path d="M695.31 188.289L717.651 191.126L717.357 171.796L695.31 188.289Z" stroke="#FF5100"/>
<path d="M705.523 214.154L718.087 193.299L730.228 212.481L705.523 214.154Z" stroke="#FF5100"/>
<path d="M716.871 192.45L705.748 190.92L694.529 189.613L704.306 213.305L716.871 192.45Z" stroke="#FF5100"/>
<path d="M650.16 170.785L672.394 175.365L667.085 193.246L650.16 170.785Z" stroke="#FF5100"/>
<path d="M691.31 160.945L673.756 175.054L687.873 188.263L691.31 160.945Z" stroke="#FF5100"/>
<path d="M665.605 150.337L671.89 173.859L649.655 169.279L665.605 150.337Z" stroke="#FF5100"/>
<path d="M673.346 173.573L682.169 166.631L690.899 159.465L667.06 150.051L673.346 173.573Z" stroke="#FF5100"/>
<path d="M547.967 179.526L551.543 201.944L532.94 203.299L547.967 179.526Z" stroke="#FF5100"/>
<path d="M571.72 214.54L552.316 203.108L544.951 220.983L571.72 214.54Z" stroke="#FF5100"/>
<path d="M572.555 186.744L552.774 200.94L549.197 178.522L572.555 186.744Z" stroke="#FF5100"/>
<path d="M553.556 202.2L563.169 207.999L572.96 213.631L573.337 188.004L553.556 202.2Z" stroke="#FF5100"/>
<path d="M451.967 195.135L434.758 180.329L448.087 167.28L451.967 195.135Z" stroke="#FF5100"/>
<path d="M411.219 183.742L433.416 179.939L427.496 161.535L411.219 183.742Z" stroke="#FF5100"/>
<path d="M428.532 205.503L434.467 181.89L451.676 196.696L428.532 205.503Z" stroke="#FF5100"/>
<path d="M433.056 181.433L421.971 183.214L410.859 185.236L427.122 205.046L433.056 181.433Z" stroke="#FF5100"/>
<path d="M602.962 94.0727L590.821 74.8908L607.376 66.2969L602.962 94.0727Z" stroke="#FF5100"/>
<path d="M567.31 71.2888L589.651 74.1258L589.357 54.7956L567.31 71.2888Z" stroke="#FF5100"/>
<path d="M577.523 97.1543L590.087 76.2991L602.228 95.481L577.523 97.1543Z" stroke="#FF5100"/>
<path d="M588.871 75.4498L577.748 73.9195L566.529 72.6128L576.306 96.3051L588.871 75.4498Z" stroke="#FF5100"/>
<path d="M543.035 146.893L520.414 144.985L523.564 126.6L543.035 146.893Z" stroke="#FF5100"/>
<path d="M503.343 161.548L519.098 145.455L503.514 134.015L503.343 161.548Z" stroke="#FF5100"/>
<path d="M530.127 169.03L521.093 146.42L543.715 148.329L530.127 169.03Z" stroke="#FF5100"/>
<path d="M519.682 146.877L511.744 154.817L503.927 162.97L528.715 169.487L519.682 146.877Z" stroke="#FF5100"/>
<path d="M618.951 213.813L626.676 192.466L643.61 200.287L618.951 213.813Z" stroke="#FF5100"/>
<path d="M615.121 171.676L626.564 191.073L641.662 178.999L615.121 171.676Z" stroke="#FF5100"/>
<path d="M600.932 195.593L625.113 192.749L617.388 214.096L600.932 195.593Z" stroke="#FF5100"/>
<path d="M625.039 191.268L619.436 181.539L613.596 171.871L600.858 194.112L625.039 191.268Z" stroke="#FF5100"/>
<path d="M159.533 127.62L137.887 120.78L145.005 103.538L159.533 127.62Z" stroke="#FF5100"/>
<path d="M117.59 133.181L136.5 120.949L123.815 106.36L117.59 133.181Z" stroke="#FF5100"/>
<path d="M142.07 146.373L138.234 122.33L159.88 129.17L142.07 146.373Z" stroke="#FF5100"/>
<path d="M136.757 122.465L127.267 128.464L117.847 134.696L140.593 146.508L136.757 122.465Z" stroke="#FF5100"/>
<path d="M292.962 104.073L280.821 84.8908L297.376 76.2969L292.962 104.073Z" stroke="#FF5100"/>
<path d="M257.31 81.2888L279.651 84.1258L279.357 64.7956L257.31 81.2888Z" stroke="#FF5100"/>
<path d="M267.523 107.154L280.087 86.2991L292.228 105.481L267.523 107.154Z" stroke="#FF5100"/>
<path d="M278.871 85.4498L267.748 83.9195L256.529 82.6128L266.306 106.305L278.871 85.4498Z" stroke="#FF5100"/>
<path d="M153.489 205.302L141.348 186.12L157.903 177.526L153.489 205.302Z" stroke="#FF5100"/>
<path d="M117.837 182.518L140.178 185.355L139.883 166.025L117.837 182.518Z" stroke="#FF5100"/>
<path d="M128.049 208.384L140.614 187.529L152.755 206.711L128.049 208.384Z" stroke="#FF5100"/>
<path d="M139.398 186.68L128.275 185.149L117.056 183.843L126.833 207.535L139.398 186.68Z" stroke="#FF5100"/>
<path d="M238.962 133.073L226.82 113.891L243.376 105.297L238.962 133.073Z" stroke="#FF5100"/>
<path d="M203.309 110.289L225.651 113.126L225.356 93.7956L203.309 110.289Z" stroke="#FF5100"/>
<path d="M213.522 136.155L226.087 115.3L238.228 134.481L213.522 136.155Z" stroke="#FF5100"/>
<path d="M224.871 114.45L213.748 112.92L202.529 111.613L212.306 135.306L224.871 114.45Z" stroke="#FF5100"/>
<path d="M288.489 190.302L276.348 171.12L292.903 162.526L288.489 190.302Z" stroke="#FF5100"/>
<path d="M252.837 167.518L275.178 170.355L274.883 151.025L252.837 167.518Z" stroke="#FF5100"/>
<path d="M263.049 193.384L275.614 172.529L287.755 191.711L263.049 193.384Z" stroke="#FF5100"/>
<path d="M274.398 171.68L263.275 170.149L252.056 168.843L261.833 192.535L274.398 171.68Z" stroke="#FF5100"/>
<path d="M729.419 166.583L749.606 156.198L756.691 173.453L729.419 166.583Z" stroke="#FF5100"/>
<path d="M755.287 133.101L750.472 155.101L769.752 156.529L755.287 133.101Z" stroke="#FF5100"/>
<path d="M728.615 140.97L748.268 155.342L728.081 165.727L728.615 140.97Z" stroke="#FF5100"/>
<path d="M749.222 154.206L751.737 143.264L754.037 132.206L729.569 139.834L749.222 154.206Z" stroke="#FF5100"/>
<path d="M638.515 44.4046L660.405 50.4208L653.944 67.919L638.515 44.4046Z" stroke="#FF5100"/>
<path d="M680.219 37.2612L661.785 50.1991L675.013 64.2979L680.219 37.2612Z" stroke="#FF5100"/>
<path d="M655.257 25.0033L660 48.8846L638.11 42.8683L655.257 25.0033Z" stroke="#FF5100"/>
<path d="M661.471 48.6945L670.727 42.3408L679.905 35.7567L656.728 24.8133L661.471 48.6945Z" stroke="#FF5100"/>
<path d="M358.32 185.575L381.021 185.736L379.296 204.309L358.32 185.575Z" stroke="#FF5100"/>
<path d="M396.767 167.908L382.297 185.166L398.716 195.372L396.767 167.908Z" stroke="#FF5100"/>
<path d="M369.486 162.509L380.233 184.357L357.532 184.195L369.486 162.509Z" stroke="#FF5100"/>
<path d="M381.605 183.794L388.908 175.266L396.075 166.536L370.858 161.946L381.605 183.794Z" stroke="#FF5100"/>
<path d="M710.02 146.795L708.881 124.122L727.523 124.78L710.02 146.795Z" stroke="#FF5100"/>
<path d="M690.181 109.424L708.239 122.881L717.488 105.904L690.181 109.424Z" stroke="#FF5100"/>
<path d="M686.354 136.968L707.549 124.987L708.689 147.66L686.354 136.968Z" stroke="#FF5100"/>
<path d="M706.908 123.65L697.976 116.848L688.85 110.193L685.712 135.631L706.908 123.65Z" stroke="#FF5100"/>
<path d="M32.1118 26.7508L49.2572 41.6301L35.8733 54.6225L32.1118 26.7508Z" stroke="#FF5100"/>
<path d="M72.8112 38.3178L50.5976 42.0265L56.4396 60.4551L72.8112 38.3178Z" stroke="#FF5100"/>
<path d="M55.5905 16.4825L49.5553 40.0703L32.4099 25.1909L55.5905 16.4825Z" stroke="#FF5100"/>
<path d="M50.964 40.5334L62.0565 38.8L73.1775 36.8248L56.9992 16.9456L50.964 40.5334Z" stroke="#FF5100"/>
<path d="M128.203 55.2271L128.329 75.8582L111.43 74.5137L128.203 55.2271Z" stroke="#FF5100"/>
<path d="M144.719 89.9517L128.862 77.0102L119.785 92.0531L144.719 89.9517Z" stroke="#FF5100"/>
<path d="M149.297 65.0972L129.573 75.1255L129.447 54.4945L149.297 65.0972Z" stroke="#FF5100"/>
<path d="M130.101 76.3656L137.938 82.8992L145.958 89.307L149.826 66.3372L130.101 76.3656Z" stroke="#FF5100"/>
<path d="M21.2028 172.227L21.3286 192.858L4.4299 191.514L21.2028 172.227Z" stroke="#FF5100"/>
<path d="M37.7189 206.952L21.8622 194.01L12.7845 209.053L37.7189 206.952Z" stroke="#FF5100"/>
<path d="M42.2971 182.097L22.5726 192.126L22.4468 171.494L42.2971 182.097Z" stroke="#FF5100"/>
<path d="M23.1011 193.366L30.9383 199.899L38.9577 206.307L42.8256 183.337L23.1011 193.366Z" stroke="#FF5100"/>
</svg>
