<svg width="92" height="84" viewBox="0 0 92 84" fill="none" xmlns="http://www.w3.org/2000/svg">
<path d="M55.9503 30.4343C61.4468 24.8315 61.4468 15.7476 55.9503 10.1448C50.4537 4.54203 41.5421 4.54203 36.0456 10.1448C30.549 15.7476 30.549 24.8315 36.0456 30.4343C41.5421 36.0371 50.4537 36.0371 55.9503 30.4343Z" fill="black"/>
<path d="M56.4608 36.5524C53.7327 38.8933 50.3936 39.9201 46.0002 39.9201C41.6135 39.9201 38.6655 38.91 35.5008 36.5073C25.6564 38.3384 22.2875 48.1847 22.2875 55.8548V59.0442C22.2875 61.9652 23.7241 64.7064 26.1366 66.282C26.8809 66.768 27.7552 67.2626 28.7755 67.7387C29.4529 76.821 36.9196 83.9999 46.0001 83.9999C55.0808 83.9999 62.5476 76.8207 63.2248 67.7381C64.197 67.2846 65.0368 66.8143 65.7578 66.3507C68.2188 64.7667 69.713 62.0103 69.713 59.0427V55.8548C69.713 48.7938 66.6813 38.5396 56.4608 36.5524ZM46 80.9507C38.1241 80.9507 31.7166 74.4194 31.7166 66.3911C31.7166 58.363 38.1241 51.8317 46 51.8317C53.876 51.8317 60.2834 58.363 60.2834 66.3911C60.2834 74.4194 53.876 80.9507 46 80.9507Z" fill="black"/>
<path d="M74.3852 27.6747C80.1595 27.6747 84.8406 22.9032 84.8406 17.0173C84.8406 11.1313 80.1595 6.35986 74.3852 6.35986C68.6109 6.35986 63.9299 11.1313 63.9299 17.0173C63.9299 22.9032 68.6109 27.6747 74.3852 27.6747Z" fill="black"/>
<path d="M82.1566 29.0987C80.1292 30.8366 77.6486 31.5995 74.3856 31.5995C71.1268 31.5995 68.9373 30.8491 66.5861 29.0654C63.6102 29.6188 61.4304 31.1585 59.8928 33.1737C64.4035 34.7161 68.0298 37.8188 70.4791 42.2642C72.9828 46.8094 73.6386 51.5723 73.7679 54.6002C73.972 54.603 74.1775 54.6044 74.3856 54.6044C82.0328 54.6044 86.5285 52.8637 89.0622 51.2339C90.8896 50.0564 92 48.0091 92 45.8052V43.4376C92 38.1919 89.748 30.5744 82.1566 29.0987Z" fill="black"/>
<path d="M17.6145 27.6747C23.3888 27.6747 28.0698 22.9032 28.0698 17.0173C28.0698 11.1313 23.3888 6.35986 17.6145 6.35986C11.8402 6.35986 7.15921 11.1313 7.15921 17.0173C7.15921 22.9032 11.8402 27.6747 17.6145 27.6747Z" fill="black"/>
<path d="M32.1072 33.1732C30.5696 31.158 28.3897 29.6183 25.4139 29.0649C23.0625 30.8486 20.8732 31.599 17.6144 31.599C14.3514 31.599 11.8709 30.8361 9.84336 29.0982C2.252 30.5739 0 38.1914 0 43.4371V45.8047C0 48.0087 1.1103 50.0559 2.93779 51.2335C5.47143 52.8632 9.9672 54.6039 17.6144 54.6039C17.8225 54.6039 18.028 54.6025 18.2321 54.5997C18.3614 51.5719 19.0172 46.8089 21.5209 42.2637C23.9701 37.8184 27.5965 34.7156 32.1072 33.1732Z" fill="black"/>
<path d="M46.292 56.9954C42.8703 56.8295 40.0294 59.5958 39.9836 63.0372C39.9726 63.8509 40.5504 64.5708 41.3458 64.6404C41.7111 64.6723 42.0531 64.5711 42.3272 64.3771C42.7181 64.1024 42.9742 63.6427 42.9742 63.1217C42.9742 61.3049 44.5236 59.8497 46.3459 60.0571C47.7338 60.215 48.8514 61.3542 49.0064 62.769C49.2098 64.6265 47.7822 66.2059 46 66.2059C45.2149 66.2059 44.5723 66.8212 44.5099 67.6056C44.5066 67.6464 44.5044 67.6884 44.5044 67.7304V69.8427C44.5044 70.1642 44.7601 70.4249 45.0756 70.4249H46.9244C47.2399 70.4249 47.4956 70.1642 47.4956 69.8427V69.0631C50.1772 68.361 52.1416 65.8193 52.0109 62.8413C51.8729 59.6989 49.3743 57.1446 46.292 56.9954Z" fill="black"/>
<path d="M46.6794 75.2571C47.5762 74.8784 48.0021 73.8304 47.6306 72.9163C47.2592 72.0021 46.231 71.5681 45.3342 71.9467C44.4374 72.3254 44.0116 73.3734 44.383 74.2875C44.7545 75.2016 45.7826 75.6357 46.6794 75.2571Z" fill="black"/>
</svg>
