<svg width="833" height="879" viewBox="0 0 833 879" fill="none" xmlns="http://www.w3.org/2000/svg">
<path d="M416.5 879C526.963 879 632.901 835.119 711.01 757.01C789.119 678.901 833 572.963 833 462.5C833 352.037 789.119 246.099 711.01 167.99C632.901 89.8812 526.963 46 416.5 46L416.5 462.5L416.5 879Z" fill="url(#paint0_linear_125_3)"/>
<path d="M417 816C325.766 816 238.268 779.757 173.755 715.245C109.243 650.732 73 563.234 73 472C73 380.766 109.243 293.268 173.755 228.755C238.268 164.243 325.766 128 417 128V472V816Z" fill="url(#paint1_radial_125_3)"/>
<circle cx="416" cy="467" r="298" fill="#FFC640"/>
<path d="M176.418 201.155C137.685 228.963 105.516 267.395 82.7812 313.026C60.0461 358.658 47.4508 410.07 46.118 462.681C44.7852 515.291 54.7564 567.464 75.1427 614.55C95.5289 661.635 125.697 702.17 162.957 732.539L169.917 721.173C134.282 692.129 105.43 653.363 85.9334 608.331C66.4365 563.3 56.9003 513.402 58.1749 463.087C59.4496 412.772 71.4954 363.602 93.2387 319.961C114.982 276.321 145.747 239.565 182.791 212.971L176.418 201.155Z" fill="#242E6C"/>
<circle cx="416" cy="463" r="223" fill="#FEFEFE"/>
<circle cx="175.5" cy="209.5" r="17.5" fill="#242E6C"/>
<path d="M191.015 729.872C191.015 739.26 183.18 746.872 173.515 746.872C163.85 746.872 156.015 739.26 156.015 729.872C156.015 720.483 163.85 712.872 173.515 712.872C183.18 712.872 191.015 720.483 191.015 729.872Z" fill="#242E6C"/>
<circle cx="248.5" cy="55.5" r="55.5" fill="#FC4726"/>
<defs>
<linearGradient id="paint0_linear_125_3" x1="416.5" y1="46" x2="416.5" y2="879" gradientUnits="userSpaceOnUse">
<stop stop-color="#FF9811"/>
<stop offset="0.650935" stop-color="#FD5223"/>
<stop offset="1" stop-color="#FC2D2D"/>
</linearGradient>
<radialGradient id="paint1_radial_125_3" cx="0" cy="0" r="1" gradientUnits="userSpaceOnUse" gradientTransform="translate(417 472) rotate(90) scale(344)">
<stop offset="0.475" stop-color="#1B2251"/>
<stop offset="1" stop-color="white"/>
</radialGradient>
</defs>
</svg>
