<svg width="74" height="76" viewBox="0 0 74 76" fill="none" xmlns="http://www.w3.org/2000/svg">
<path d="M61.875 0.0625003H73.0469V11.2344H61.875V0.0625003ZM61.875 32.2636H73.0469V43.4355H61.875V32.2636ZM61.875 64.4648H73.0469V75.6366H61.875V64.4648ZM41.875 0.0625003H53.0469V11.2344H41.875V0.0625003ZM41.875 32.2636H53.0469V43.4355H41.875V32.2636ZM41.875 64.4648H53.0469V75.6366H41.875V64.4648ZM21.875 0.0625003H33.0469V11.2344H21.875V0.0625003ZM21.875 32.2636H33.0469V43.4355H21.875V32.2636ZM21.875 64.4648H33.0469V75.6366H21.875V64.4648ZM0.875 0.0625003H12.0469V11.2344H0.875V0.0625003ZM0.875 32.2636H12.0469V43.4355H0.875V32.2636ZM0.875 64.4648H12.0469V75.6366H0.875V64.4648Z" fill="#FF7824"/>
</svg>
